<svg width="25" height="25" viewBox="0 0 25 25" fill="none" xmlns="http://www.w3.org/2000/svg">
<path d="M21.5 15.2803C21.5 15.4792 21.421 15.67 21.2803 15.8106C21.1397 15.9513 20.9489 16.0303 20.75 16.0303H18.5V17.5303H20C20.1989 17.5303 20.3897 17.6093 20.5303 17.7499C20.671 17.8906 20.75 18.0814 20.75 18.2803C20.75 18.4792 20.671 18.67 20.5303 18.8106C20.3897 18.9513 20.1989 19.0303 20 19.0303H18.5V20.5303C18.5 20.7292 18.421 20.92 18.2803 21.0606C18.1397 21.2013 17.9489 21.2803 17.75 21.2803C17.5511 21.2803 17.3603 21.2013 17.2197 21.0606C17.079 20.92 17 20.7292 17 20.5303V15.2803C17 15.0814 17.079 14.8906 17.2197 14.7499C17.3603 14.6093 17.5511 14.5303 17.75 14.5303H20.75C20.9489 14.5303 21.1397 14.6093 21.2803 14.7499C21.421 14.8906 21.5 15.0814 21.5 15.2803ZM9.125 17.1553C9.125 17.8515 8.84844 18.5191 8.35616 19.0114C7.86387 19.5037 7.19619 19.7803 6.5 19.7803H5.75V20.5303C5.75 20.7292 5.67098 20.92 5.53033 21.0606C5.38968 21.2013 5.19891 21.2803 5 21.2803C4.80109 21.2803 4.61032 21.2013 4.46967 21.0606C4.32902 20.92 4.25 20.7292 4.25 20.5303V15.2803C4.25 15.0814 4.32902 14.8906 4.46967 14.7499C4.61032 14.6093 4.80109 14.5303 5 14.5303H6.5C7.19619 14.5303 7.86387 14.8068 8.35616 15.2991C8.84844 15.7914 9.125 16.4591 9.125 17.1553ZM7.625 17.1553C7.625 16.8569 7.50647 16.5708 7.2955 16.3598C7.08452 16.1488 6.79837 16.0303 6.5 16.0303H5.75V18.2803H6.5C6.79837 18.2803 7.08452 18.1617 7.2955 17.9508C7.50647 17.7398 7.625 17.4536 7.625 17.1553ZM15.875 17.9053C15.875 18.8004 15.5194 19.6588 14.8865 20.2918C14.2535 20.9247 13.3951 21.2803 12.5 21.2803H11C10.8011 21.2803 10.6103 21.2013 10.4697 21.0606C10.329 20.92 10.25 20.7292 10.25 20.5303V15.2803C10.25 15.0814 10.329 14.8906 10.4697 14.7499C10.6103 14.6093 10.8011 14.5303 11 14.5303H12.5C13.3951 14.5303 14.2535 14.8859 14.8865 15.5188C15.5194 16.1517 15.875 17.0102 15.875 17.9053ZM14.375 17.9053C14.375 17.408 14.1775 16.9311 13.8258 16.5794C13.4742 16.2278 12.9973 16.0303 12.5 16.0303H11.75V19.7803H12.5C12.9973 19.7803 13.4742 19.5827 13.8258 19.2311C14.1775 18.8795 14.375 18.4026 14.375 17.9053ZM4.25 11.5303V4.78027C4.25 4.38245 4.40804 4.00092 4.68934 3.71961C4.97064 3.43831 5.35218 3.28027 5.75 3.28027H14.75C14.8485 3.2802 14.9461 3.29953 15.0371 3.33717C15.1282 3.37481 15.2109 3.43002 15.2806 3.49965L20.5306 8.74965C20.6003 8.81935 20.6555 8.90209 20.6931 8.99314C20.7307 9.08418 20.7501 9.18175 20.75 9.28027V11.5303C20.75 11.7292 20.671 11.92 20.5303 12.0606C20.3897 12.2013 20.1989 12.2803 20 12.2803C19.8011 12.2803 19.6103 12.2013 19.4697 12.0606C19.329 11.92 19.25 11.7292 19.25 11.5303V10.0303H14.75C14.5511 10.0303 14.3603 9.95126 14.2197 9.8106C14.079 9.66995 14 9.47919 14 9.28027V4.78027H5.75V11.5303C5.75 11.7292 5.67098 11.92 5.53033 12.0606C5.38968 12.2013 5.19891 12.2803 5 12.2803C4.80109 12.2803 4.61032 12.2013 4.46967 12.0606C4.32902 11.92 4.25 11.7292 4.25 11.5303ZM15.5 8.53027H18.1897L15.5 5.84059V8.53027Z" fill="#1529FF"/>
</svg>
