<svg width="25" height="25" viewBox="0 0 25 25" fill="none" xmlns="http://www.w3.org/2000/svg">
<path d="M8.75 9.28027C8.75 9.08136 8.82902 8.8906 8.96967 8.74994C9.11032 8.60929 9.30109 8.53027 9.5 8.53027H15.5C15.6989 8.53027 15.8897 8.60929 16.0303 8.74994C16.171 8.8906 16.25 9.08136 16.25 9.28027C16.25 9.47919 16.171 9.66995 16.0303 9.8106C15.8897 9.95126 15.6989 10.0303 15.5 10.0303H9.5C9.30109 10.0303 9.11032 9.95126 8.96967 9.8106C8.82902 9.66995 8.75 9.47919 8.75 9.28027ZM9.5 13.0303H15.5C15.6989 13.0303 15.8897 12.9513 16.0303 12.8106C16.171 12.67 16.25 12.4792 16.25 12.2803C16.25 12.0814 16.171 11.8906 16.0303 11.7499C15.8897 11.6093 15.6989 11.5303 15.5 11.5303H9.5C9.30109 11.5303 9.11032 11.6093 8.96967 11.7499C8.82902 11.8906 8.75 12.0814 8.75 12.2803C8.75 12.4792 8.82902 12.67 8.96967 12.8106C9.11032 12.9513 9.30109 13.0303 9.5 13.0303ZM12.5 14.5303H9.5C9.30109 14.5303 9.11032 14.6093 8.96967 14.7499C8.82902 14.8906 8.75 15.0814 8.75 15.2803C8.75 15.4792 8.82902 15.67 8.96967 15.8106C9.11032 15.9513 9.30109 16.0303 9.5 16.0303H12.5C12.6989 16.0303 12.8897 15.9513 13.0303 15.8106C13.171 15.67 13.25 15.4792 13.25 15.2803C13.25 15.0814 13.171 14.8906 13.0303 14.7499C12.8897 14.6093 12.6989 14.5303 12.5 14.5303ZM21.5 4.78027V14.97C21.5006 15.167 21.4621 15.3622 21.3866 15.5443C21.3111 15.7263 21.2002 15.8915 21.0603 16.0303L16.25 20.8406C16.1112 20.9805 15.946 21.0914 15.764 21.1669C15.582 21.2424 15.3867 21.2809 15.1897 21.2803H5C4.60218 21.2803 4.22064 21.1222 3.93934 20.8409C3.65804 20.5596 3.5 20.1781 3.5 19.7803V4.78027C3.5 4.38245 3.65804 4.00092 3.93934 3.71961C4.22064 3.43831 4.60218 3.28027 5 3.28027H20C20.3978 3.28027 20.7794 3.43831 21.0607 3.71961C21.342 4.00092 21.5 4.38245 21.5 4.78027ZM5 19.7803H14.75V15.2803C14.75 15.0814 14.829 14.8906 14.9697 14.7499C15.1103 14.6093 15.3011 14.5303 15.5 14.5303H20V4.78027H5V19.7803ZM16.25 16.0303V18.7209L18.9397 16.0303H16.25Z" fill="#003ACC"/>
</svg>
