<svg width="16" height="17" viewBox="0 0 16 17" fill="none" xmlns="http://www.w3.org/2000/svg">
<path d="M13 3.28027H3C2.60218 3.28027 2.22064 3.43831 1.93934 3.71961C1.65804 4.00092 1.5 4.38245 1.5 4.78027V11.7803C1.5 12.1781 1.65804 12.5596 1.93934 12.8409C2.22064 13.1222 2.60218 13.2803 3 13.2803H13C13.3978 13.2803 13.7794 13.1222 14.0607 12.8409C14.342 12.5596 14.5 12.1781 14.5 11.7803V4.78027C14.5 4.38245 14.342 4.00092 14.0607 3.71961C13.7794 3.43831 13.3978 3.28027 13 3.28027ZM13.5 11.7803C13.5 11.9129 13.4473 12.0401 13.3536 12.1338C13.2598 12.2276 13.1326 12.2803 13 12.2803H3C2.86739 12.2803 2.74021 12.2276 2.64645 12.1338C2.55268 12.0401 2.5 11.9129 2.5 11.7803V4.78027C2.5 4.64767 2.55268 4.52049 2.64645 4.42672C2.74021 4.33295 2.86739 4.28027 3 4.28027H13C13.1326 4.28027 13.2598 4.33295 13.3536 4.42672C13.4473 4.52049 13.5 4.64767 13.5 4.78027V11.7803ZM10.5 14.7803C10.5 14.9129 10.4473 15.0401 10.3536 15.1338C10.2598 15.2276 10.1326 15.2803 10 15.2803H6C5.86739 15.2803 5.74021 15.2276 5.64645 15.1338C5.55268 15.0401 5.5 14.9129 5.5 14.7803C5.5 14.6477 5.55268 14.5205 5.64645 14.4267C5.74021 14.333 5.86739 14.2803 6 14.2803H10C10.1326 14.2803 10.2598 14.333 10.3536 14.4267C10.4473 14.5205 10.5 14.6477 10.5 14.7803ZM10.2775 7.86402L7.2775 5.86402C7.20218 5.81377 7.11463 5.78492 7.0242 5.78053C6.93376 5.77615 6.84383 5.79641 6.76401 5.83915C6.68418 5.88188 6.61746 5.94549 6.57097 6.02318C6.52447 6.10087 6.49994 6.18973 6.5 6.28027V10.2803C6.49994 10.3708 6.52447 10.4597 6.57097 10.5374C6.61746 10.6151 6.68418 10.6787 6.76401 10.7214C6.84383 10.7641 6.93376 10.7844 7.0242 10.78C7.11463 10.7756 7.20218 10.7468 7.2775 10.6965L10.2775 8.69652C10.3461 8.65088 10.4023 8.589 10.4412 8.51638C10.4801 8.44376 10.5005 8.36266 10.5005 8.28027C10.5005 8.19789 10.4801 8.11678 10.4412 8.04417C10.4023 7.97155 10.3461 7.90967 10.2775 7.86402ZM7.5 9.3459V7.21777L9.09875 8.28027L7.5 9.3459Z" fill="#1529FF"/>
</svg>
