<svg width="33" height="33" viewBox="0 0 33 33" fill="none" xmlns="http://www.w3.org/2000/svg">
<path d="M25.5 21.5C24.6132 21.5008 23.7517 21.7958 23.0505 22.3387C22.3493 22.8815 21.8479 23.6417 21.625 24.5H9.5C8.43913 24.5 7.42172 24.0786 6.67157 23.3284C5.92143 22.5783 5.5 21.5609 5.5 20.5C5.5 19.4391 5.92143 18.4217 6.67157 17.6716C7.42172 16.9214 8.43913 16.5 9.5 16.5H21.5C22.8261 16.5 24.0979 15.9732 25.0355 15.0355C25.9732 14.0979 26.5 12.8261 26.5 11.5C26.5 10.1739 25.9732 8.90215 25.0355 7.96447C24.0979 7.02678 22.8261 6.5 21.5 6.5H9.5C9.23478 6.5 8.98043 6.60536 8.79289 6.79289C8.60536 6.98043 8.5 7.23478 8.5 7.5C8.5 7.76522 8.60536 8.01957 8.79289 8.20711C8.98043 8.39464 9.23478 8.5 9.5 8.5H21.5C22.2956 8.5 23.0587 8.81607 23.6213 9.37868C24.1839 9.94129 24.5 10.7044 24.5 11.5C24.5 12.2956 24.1839 13.0587 23.6213 13.6213C23.0587 14.1839 22.2956 14.5 21.5 14.5H9.5C7.9087 14.5 6.38258 15.1321 5.25736 16.2574C4.13214 17.3826 3.5 18.9087 3.5 20.5C3.5 22.0913 4.13214 23.6174 5.25736 24.7426C6.38258 25.8679 7.9087 26.5 9.5 26.5H21.625C21.812 27.2243 22.1984 27.8816 22.7402 28.3974C23.2821 28.9131 23.9577 29.2666 24.6903 29.4176C25.423 29.5687 26.1833 29.5112 26.8849 29.2519C27.5866 28.9925 28.2014 28.5416 28.6596 27.9503C29.1179 27.359 29.4011 26.6511 29.4772 25.9069C29.5533 25.1628 29.4192 24.4122 29.0902 23.7404C28.7611 23.0686 28.2502 22.5026 27.6156 22.1065C26.981 21.7105 26.248 21.5004 25.5 21.5ZM25.5 27.5C25.1044 27.5 24.7178 27.3827 24.3889 27.1629C24.06 26.9432 23.8036 26.6308 23.6522 26.2654C23.5009 25.8999 23.4613 25.4978 23.5384 25.1098C23.6156 24.7219 23.8061 24.3655 24.0858 24.0858C24.3655 23.8061 24.7219 23.6156 25.1098 23.5384C25.4978 23.4613 25.8999 23.5009 26.2654 23.6522C26.6308 23.8036 26.9432 24.06 27.1629 24.3889C27.3827 24.7178 27.5 25.1044 27.5 25.5C27.5 26.0304 27.2893 26.5391 26.9142 26.9142C26.5391 27.2893 26.0304 27.5 25.5 27.5Z" fill="#1529FF"/>
</svg>
