<svg width="17" height="17" viewBox="0 0 17 17" fill="none" xmlns="http://www.w3.org/2000/svg">
<path d="M14.5 8.28055C14.5 8.41316 14.4473 8.54034 14.3535 8.63411C14.2598 8.72787 14.1326 8.78055 14 8.78055H4.20687L7.85375 12.4268C7.9002 12.4733 7.93705 12.5284 7.96219 12.5891C7.98733 12.6498 8.00027 12.7149 8.00027 12.7806C8.00027 12.8462 7.98733 12.9113 7.96219 12.972C7.93705 13.0327 7.9002 13.0878 7.85375 13.1343C7.80729 13.1808 7.75214 13.2176 7.69144 13.2427C7.63075 13.2679 7.56569 13.2808 7.5 13.2808C7.4343 13.2808 7.36925 13.2679 7.30855 13.2427C7.24785 13.2176 7.1927 13.1808 7.14625 13.1343L2.64625 8.6343C2.59976 8.58787 2.56288 8.53272 2.53772 8.47202C2.51255 8.41132 2.4996 8.34626 2.4996 8.28055C2.4996 8.21484 2.51255 8.14978 2.53772 8.08908C2.56288 8.02838 2.59976 7.97324 2.64625 7.9268L7.14625 3.4268C7.24007 3.33298 7.36731 3.28027 7.5 3.28027C7.63268 3.28027 7.75993 3.33298 7.85375 3.4268C7.94757 3.52062 8.00027 3.64787 8.00027 3.78055C8.00027 3.91323 7.94757 4.04048 7.85375 4.1343L4.20687 7.78055H14C14.1326 7.78055 14.2598 7.83323 14.3535 7.927C14.4473 8.02077 14.5 8.14794 14.5 8.28055Z" fill="#132190"/>
</svg>
