<svg width="17" height="17" viewBox="0 0 17 17" fill="none" xmlns="http://www.w3.org/2000/svg">
<path d="M14.3538 8.6343L9.85375 13.1343C9.75993 13.2281 9.63268 13.2808 9.5 13.2808C9.36732 13.2808 9.24007 13.2281 9.14625 13.1343C9.05243 13.0405 8.99972 12.9132 8.99972 12.7806C8.99972 12.6479 9.05243 12.5206 9.14625 12.4268L12.7931 8.78055H3C2.86739 8.78055 2.74021 8.72787 2.64645 8.63411C2.55268 8.54034 2.5 8.41316 2.5 8.28055C2.5 8.14794 2.55268 8.02077 2.64645 7.927C2.74021 7.83323 2.86739 7.78055 3 7.78055H12.7931L9.14625 4.1343C9.05243 4.04048 8.99972 3.91323 8.99972 3.78055C8.99972 3.64787 9.05243 3.52062 9.14625 3.4268C9.24007 3.33298 9.36732 3.28027 9.5 3.28027C9.63268 3.28027 9.75993 3.33298 9.85375 3.4268L14.3538 7.9268C14.4002 7.97324 14.4371 8.02838 14.4623 8.08908C14.4874 8.14978 14.5004 8.21484 14.5004 8.28055C14.5004 8.34626 14.4874 8.41132 14.4623 8.47202C14.4371 8.53272 14.4002 8.58787 14.3538 8.6343Z" fill="#1529FF"/>
</svg>
