<svg width="17" height="17" viewBox="0 0 17 17" fill="none" xmlns="http://www.w3.org/2000/svg">
<path d="M13 4.28027V10.7803C13 10.9129 12.9474 11.0401 12.8536 11.1338C12.7598 11.2276 12.6326 11.2803 12.5 11.2803C12.3674 11.2803 12.2402 11.2276 12.1465 11.1338C12.0527 11.0401 12 10.9129 12 10.7803V5.48715L4.85378 12.634C4.75996 12.7278 4.63272 12.7806 4.50003 12.7806C4.36735 12.7806 4.2401 12.7278 4.14628 12.634C4.05246 12.5402 3.99976 12.413 3.99976 12.2803C3.99976 12.1476 4.05246 12.0203 4.14628 11.9265L11.2932 4.78027H6.00003C5.86743 4.78027 5.74025 4.72759 5.64648 4.63383C5.55271 4.54006 5.50003 4.41288 5.50003 4.28027C5.50003 4.14767 5.55271 4.02049 5.64648 3.92672C5.74025 3.83295 5.86743 3.78027 6.00003 3.78027H12.5C12.6326 3.78027 12.7598 3.83295 12.8536 3.92672C12.9474 4.02049 13 4.14767 13 4.28027Z" fill="#1529FF"/>
</svg>
