<svg width="32" height="33" viewBox="0 0 32 33" fill="none" xmlns="http://www.w3.org/2000/svg">
<path d="M25 19.2803C24.1161 19.2798 23.2572 19.5736 22.5588 20.1153L19.67 17.8653C19.8881 17.3653 20.0004 16.8257 20 16.2803C20 16.1878 20 16.0953 19.99 16.004L21.6438 15.4528C22.167 16.2597 22.9634 16.8511 23.8871 17.1187C24.8108 17.3862 25.8 17.3121 26.6735 16.9097C27.547 16.5074 28.2463 15.8038 28.6433 14.9278C29.0403 14.0519 29.1084 13.0623 28.8352 12.1402C28.5619 11.2181 27.9657 10.4253 27.1555 9.9071C26.3454 9.38885 25.3757 9.17982 24.424 9.3183C23.4724 9.45678 22.6024 9.93349 21.9736 10.6611C21.3448 11.3887 20.9991 12.3186 21 13.2803C21 13.3728 21 13.4653 21.01 13.5565L19.3563 14.1078C18.9937 13.5473 18.4967 13.0865 17.9105 12.7673C17.3243 12.4481 16.6675 12.2807 16 12.2803C15.7793 12.2807 15.559 12.2991 15.3413 12.3353L14.4863 10.4053C15.2245 9.81537 15.7301 8.98316 15.9134 8.05611C16.0967 7.12906 15.9458 6.16706 15.4876 5.34061C15.0294 4.51416 14.2933 3.87663 13.4099 3.54102C12.5265 3.20542 11.5529 3.19341 10.6615 3.50712C9.77006 3.82084 9.01851 4.44002 8.54003 5.25492C8.06154 6.06981 7.88701 7.0278 8.04738 7.95909C8.20775 8.89037 8.69266 9.73481 9.41616 10.3427C10.1397 10.9506 11.055 11.2828 12 11.2803C12.2207 11.2798 12.441 11.2614 12.6588 11.2253L13.5138 13.1503C12.7887 13.7241 12.2855 14.532 12.0901 15.4358C11.8947 16.3396 12.0193 17.2831 12.4425 18.1053L9.22876 20.9603C8.41998 20.415 7.44012 20.1835 6.47284 20.309C5.50556 20.4345 4.61727 20.9085 3.97447 21.6422C3.33166 22.3758 2.97848 23.3186 2.98112 24.294C2.98377 25.2694 3.34205 26.2104 3.98882 26.9405C4.63559 27.6706 5.52644 28.1398 6.49438 28.2601C7.46233 28.3804 8.44092 28.1435 9.24673 27.5939C10.0525 27.0443 10.6302 26.2197 10.8715 25.2746C11.1128 24.3295 11.0012 23.3289 10.5575 22.4603L13.7713 19.6053C14.4671 20.0738 15.2929 20.311 16.1313 20.2832C16.9697 20.2553 17.778 19.9639 18.4413 19.4503L21.33 21.7003C21.1126 22.1987 21.0003 22.7365 21 23.2803C21 24.0714 21.2346 24.8447 21.6741 25.5025C22.1137 26.1603 22.7384 26.673 23.4693 26.9758C24.2002 27.2785 25.0044 27.3577 25.7804 27.2034C26.5563 27.0491 27.269 26.6681 27.8284 26.1087C28.3878 25.5493 28.7688 24.8365 28.9231 24.0606C29.0775 23.2847 28.9983 22.4804 28.6955 21.7495C28.3928 21.0186 27.8801 20.3939 27.2223 19.9544C26.5645 19.5149 25.7911 19.2803 25 19.2803ZM25 11.2803C25.3956 11.2803 25.7822 11.3976 26.1111 11.6173C26.44 11.8371 26.6964 12.1494 26.8478 12.5149C26.9991 12.8803 27.0387 13.2825 26.9616 13.6704C26.8844 14.0584 26.6939 14.4148 26.4142 14.6945C26.1345 14.9742 25.7781 15.1647 25.3902 15.2418C25.0022 15.319 24.6001 15.2794 24.2346 15.128C23.8692 14.9766 23.5568 14.7203 23.3371 14.3914C23.1173 14.0625 23 13.6758 23 13.2803C23 12.7498 23.2107 12.2411 23.5858 11.866C23.9609 11.491 24.4696 11.2803 25 11.2803ZM10 7.28026C10 6.8847 10.1173 6.49802 10.3371 6.16912C10.5568 5.84022 10.8692 5.58388 11.2346 5.4325C11.6001 5.28112 12.0022 5.24152 12.3902 5.31869C12.7781 5.39586 13.1345 5.58634 13.4142 5.86605C13.6939 6.14575 13.8844 6.50212 13.9616 6.89008C14.0387 7.27804 13.9991 7.68017 13.8478 8.04563C13.6964 8.41108 13.44 8.72344 13.1111 8.9432C12.7822 9.16296 12.3956 9.28026 12 9.28026C11.4696 9.28026 10.9609 9.06955 10.5858 8.69447C10.2107 8.3194 10 7.81069 10 7.28026ZM7.00001 26.2803C6.60444 26.2803 6.21776 26.163 5.88886 25.9432C5.55997 25.7234 5.30362 25.4111 5.15225 25.0456C5.00087 24.6802 4.96126 24.278 5.03843 23.8901C5.1156 23.5021 5.30609 23.1458 5.58579 22.866C5.8655 22.5863 6.22186 22.3959 6.60982 22.3187C6.99779 22.2415 7.39992 22.2811 7.76537 22.4325C8.13082 22.5839 8.44318 22.8402 8.66294 23.1691C8.88271 23.498 9.00001 23.8847 9.00001 24.2803C9.00001 24.8107 8.78929 25.3194 8.41422 25.6945C8.03915 26.0695 7.53044 26.2803 7.00001 26.2803ZM14 16.2803C14 15.8847 14.1173 15.498 14.3371 15.1691C14.5568 14.8402 14.8692 14.5839 15.2346 14.4325C15.6001 14.2811 16.0022 14.2415 16.3902 14.3187C16.7781 14.3959 17.1345 14.5863 17.4142 14.866C17.6939 15.1458 17.8844 15.5021 17.9616 15.8901C18.0387 16.278 17.9991 16.6802 17.8478 17.0456C17.6964 17.4111 17.44 17.7234 17.1111 17.9432C16.7822 18.163 16.3956 18.2803 16 18.2803C15.4696 18.2803 14.9609 18.0695 14.5858 17.6945C14.2107 17.3194 14 16.8107 14 16.2803ZM25 25.2803C24.6044 25.2803 24.2178 25.163 23.8889 24.9432C23.56 24.7234 23.3036 24.4111 23.1522 24.0456C23.0009 23.6802 22.9613 23.278 23.0384 22.8901C23.1156 22.5021 23.3061 22.1458 23.5858 21.866C23.8655 21.5863 24.2219 21.3959 24.6098 21.3187C24.9978 21.2415 25.3999 21.2811 25.7654 21.4325C26.1308 21.5839 26.4432 21.8402 26.6629 22.1691C26.8827 22.498 27 22.8847 27 23.2803C27 23.8107 26.7893 24.3194 26.4142 24.6945C26.0391 25.0695 25.5304 25.2803 25 25.2803Z" fill="#1529FF"/>
</svg>
