<svg width="16" height="17" viewBox="0 0 16 17" fill="none" xmlns="http://www.w3.org/2000/svg">
<path d="M13.3538 5.76002L9.85375 2.26002C9.80728 2.2136 9.75212 2.1768 9.69143 2.1517C9.63073 2.12661 9.56568 2.11372 9.5 2.11377H3.5C3.23478 2.11377 2.98043 2.21913 2.79289 2.40666C2.60536 2.5942 2.5 2.84855 2.5 3.11377V14.1138C2.5 14.379 2.60536 14.6333 2.79289 14.8209C2.98043 15.0084 3.23478 15.1138 3.5 15.1138H12.5C12.7652 15.1138 13.0196 15.0084 13.2071 14.8209C13.3946 14.6333 13.5 14.379 13.5 14.1138V6.11377C13.5001 6.04809 13.4872 5.98304 13.4621 5.92234C13.437 5.86165 13.4002 5.80649 13.3538 5.76002ZM10 3.82064L11.7931 5.61377H10V3.82064ZM12.5 14.1138H3.5V3.11377H9V6.11377C9 6.24638 9.05268 6.37355 9.14645 6.46732C9.24021 6.56109 9.36739 6.61377 9.5 6.61377H12.5V14.1138Z" fill="#1529FF"/>
</svg>
