<svg width="40" height="44" viewBox="0 0 40 44" fill="none" xmlns="http://www.w3.org/2000/svg">
<path d="M38.0995 29.412H33.0548C34.2989 27.1337 35.0104 24.5006 35.0104 21.6948C35.0104 19.1446 34.4226 16.7373 33.3818 14.611L33.4835 14.5926H38.2343C39.3038 14.5926 39.7369 13.0952 38.8597 12.4571L21.5931 0.507958C20.6628 -0.169319 19.4254 -0.169319 18.4929 0.507958L1.22854 12.4548C0.351295 13.0929 0.784396 14.5903 1.85389 14.5903H6.61578L6.70638 14.6064C5.66341 16.7327 5.07563 19.1423 5.07563 21.6948C5.07563 24.5006 5.78715 27.1337 7.03121 29.4097H7.01132H1.85168C0.782186 29.4097 0.349086 30.9071 1.22634 31.5452L18.4907 43.492C19.421 44.1693 20.6584 44.1693 21.5909 43.492L38.8553 31.5452C39.7325 30.9071 39.2994 29.4097 38.2299 29.4097M24.6381 31.3702C24.5762 31.5291 24.3552 31.513 24.3177 31.3448C23.8625 29.3475 22.4748 27.4562 20.0839 27.4562C17.693 27.4562 16.3053 29.3452 15.8501 31.3448C15.8125 31.513 15.5916 31.5291 15.5275 31.3702C15.2911 30.7689 15.1607 30.1101 15.1607 29.4213C15.1607 26.5877 17.3637 24.291 20.0839 24.291C22.804 24.291 24.9916 26.5647 25.0049 29.3959C25.0071 30.0962 24.8767 30.762 24.6381 31.3702ZM28.536 29.1886C28.2045 30.0087 27.7582 30.7436 27.2234 31.3794C27.0267 31.6143 26.6599 31.3886 26.766 31.096L26.7748 31.0707C27.9482 27.5369 26.2777 23.6229 22.8902 22.1624C19.5027 20.7019 15.6313 22.2292 14.0271 25.5787L14.0183 25.5995C13.8923 25.8828 13.4791 25.7723 13.5034 25.4636C13.5653 24.6227 13.7553 23.7796 14.0868 22.9595C15.7507 18.8405 20.3358 16.8962 24.3265 18.6148C28.3172 20.3356 30.2021 25.0696 28.5382 29.1886M31.5809 23.7243C31.5191 24.1942 30.8694 24.2035 30.7943 23.7358C30.6838 23.0631 30.5048 22.3905 30.2551 21.7293C28.3062 16.5991 22.424 13.8692 17.4875 15.8665C12.551 17.8638 10.4275 23.8303 12.3765 28.9628C12.6284 29.624 12.9399 30.2414 13.3023 30.8127C13.5542 31.2089 13.0703 31.6558 12.7168 31.3563C11.223 30.087 10.0121 28.4169 9.25416 26.4219C6.89863 20.2158 9.82647 13.2265 15.7971 10.8123C21.7677 8.39801 28.5183 11.4688 30.876 17.6749C31.634 19.6698 31.8439 21.7454 31.5854 23.7243" fill="#E4F2FE"/>
</svg>
