<svg width="16" height="18" viewBox="0 0 16 18" fill="none" xmlns="http://www.w3.org/2000/svg">
<path d="M13.8242 6.67275C13.16 6.04575 12.4083 5.65387 11.5741 5.50757C11.5021 5.49712 11.4197 5.49712 11.3476 5.49189C11.327 5.49189 11.3064 5.47622 11.2858 5.47622C11.2086 5.47622 11.1416 5.47099 11.0696 5.47099C11.0593 5.47099 11.0541 5.47099 11.0438 5.47099C10.9614 5.47099 10.8791 5.47099 10.807 5.47099C10.4363 5.49189 10.0552 5.59117 9.67422 5.76882L6.22966 7.37291C5.45733 7.73344 5.11236 8.6635 5.46248 9.45249C5.63239 9.83914 5.94132 10.1317 6.33263 10.278C6.51284 10.346 6.6982 10.3773 6.87841 10.3773C7.09466 10.3773 7.31091 10.3303 7.50657 10.2415L7.65073 10.1788L6.30689 11.9657C5.79201 12.6502 5.91558 13.6378 6.59008 14.1655C6.73424 14.2804 6.89901 14.364 7.06892 14.4163L6.92475 14.6096C6.67246 14.944 6.56433 15.362 6.62097 15.78C6.67761 16.198 6.88871 16.569 7.22338 16.825C7.50142 17.0393 7.83094 17.1438 8.15532 17.1438C8.62386 17.1438 9.08726 16.9295 9.39104 16.5272L9.53521 16.3339C9.63303 16.4854 9.75146 16.6265 9.90077 16.7362C10.1788 16.9504 10.5083 17.055 10.8327 17.055C11.3013 17.055 11.7646 16.8407 12.0684 16.4384L14.5656 13.1257C14.5914 13.0891 17.0371 9.71374 13.8293 6.67798L13.8242 6.67275ZM13.7418 12.4882L11.2498 15.7957C11.0747 16.0256 10.7503 16.0726 10.5238 15.895C10.4105 15.8114 10.3384 15.686 10.323 15.5449C10.3024 15.4038 10.3384 15.2628 10.426 15.153L11.8934 13.2093C12.0684 12.9794 12.0221 12.6502 11.7955 12.4778C11.6256 12.3472 11.3991 12.3367 11.224 12.4412C11.1674 12.4726 11.1107 12.5196 11.0696 12.5771L8.57752 15.8845C8.40246 16.1144 8.07809 16.1615 7.85154 15.9838C7.73827 15.9002 7.66618 15.7748 7.65073 15.6337C7.63014 15.4927 7.66618 15.3516 7.75371 15.2419L9.22113 13.2981L10.2509 11.9292C10.426 11.6993 10.3796 11.3701 10.1531 11.1977C9.92652 11.0252 9.60214 11.067 9.43223 11.2969L7.96481 13.2407C7.88243 13.3556 7.75886 13.4235 7.61984 13.4444C7.48082 13.4601 7.3418 13.4235 7.23368 13.3399C7.00713 13.1623 6.96594 12.8331 7.141 12.6032L9.63303 9.29574C9.80809 9.06583 9.76175 8.73665 9.53521 8.56423C9.40134 8.45973 9.24172 8.44405 9.09241 8.48063C9.04092 8.48063 8.98943 8.49108 8.93794 8.51198L7.11011 9.29051C6.98139 9.34799 6.84237 9.35321 6.7085 9.30619C6.57978 9.25393 6.47165 9.15988 6.41502 9.02926C6.29659 8.768 6.41502 8.4545 6.67246 8.3291L10.117 6.72501C10.3024 6.63618 10.4877 6.58915 10.6679 6.5578C10.7915 6.5369 10.9048 6.52645 11.0129 6.52645C11.049 6.52645 11.085 6.52645 11.1262 6.52645C11.224 6.52645 11.3218 6.53168 11.4145 6.54735C12.0427 6.65708 12.6245 6.96013 13.1394 7.44606C15.6623 9.82869 13.8345 12.3942 13.7572 12.4935L13.7418 12.4882Z" fill="#1529FF"/>
<path d="M4.97849 10.7849L4.7468 10.7274C4.61807 10.6908 4.49965 10.649 4.38123 10.5968C2.91381 9.97499 2.36289 8.42838 2.36289 8.41792L1.05509 4.46778C0.962407 4.19085 1.11172 3.89302 1.37946 3.79897C1.51333 3.75195 1.65235 3.7624 1.78107 3.8251C1.90464 3.8878 1.99732 3.99752 2.04366 4.12815L2.81084 6.44808C2.81084 6.44808 2.82628 6.46898 2.83143 6.48465C2.85203 6.52645 2.87262 6.56825 2.89837 6.60483C2.91896 6.62573 2.93956 6.64663 2.96015 6.6623C2.98075 6.68321 3.00649 6.70411 3.03224 6.71978C3.05798 6.73546 3.08372 6.75113 3.11462 6.76158C3.14036 6.77203 3.16611 6.77726 3.19185 6.78248C3.22274 6.78771 3.25878 6.79816 3.28968 6.79816C3.28968 6.79816 3.29483 6.79816 3.29997 6.79816C3.32057 6.79816 3.34631 6.78771 3.36691 6.78771C3.3978 6.78771 3.4287 6.78771 3.45959 6.77726C3.66039 6.70933 3.79426 6.52123 3.80971 6.31745C3.81486 6.24952 3.80971 6.1816 3.78396 6.10845L2.47616 2.1583C2.38348 1.88137 2.5328 1.58355 2.80054 1.4895C2.93441 1.44247 3.07343 1.45292 3.197 1.51562C3.32057 1.57832 3.4184 1.68805 3.45959 1.81867L4.76739 5.76882C4.83947 5.98827 5.04028 6.12412 5.25653 6.12412C5.31317 6.12412 5.36466 6.11367 5.42129 6.098C5.68903 6.00395 5.83835 5.71134 5.74567 5.43442L5.20504 3.8042L4.97849 3.11449C4.93215 2.97864 4.94245 2.83756 5.00424 2.71216C5.06602 2.58676 5.17415 2.49271 5.30802 2.44568C5.57576 2.35686 5.87439 2.50316 5.96707 2.79054L6.85267 5.29334C6.85267 5.29334 6.87326 5.32469 6.87841 5.34036C6.89386 5.37694 6.91445 5.41352 6.9402 5.44487C6.95564 5.46577 6.97624 5.48144 6.99168 5.49712C7.02258 5.52324 7.05347 5.54937 7.08951 5.57027C7.11011 5.58072 7.1307 5.59117 7.15645 5.59639C7.18219 5.60684 7.20279 5.62252 7.23368 5.62774C7.26972 5.63297 7.30061 5.63819 7.33666 5.63819C7.46538 5.63819 7.5838 5.58594 7.67648 5.50234C7.68678 5.49189 7.69193 5.48144 7.70222 5.47622C7.73827 5.43964 7.76401 5.40307 7.78975 5.35604C7.80005 5.33514 7.8052 5.31424 7.8155 5.29334C7.82579 5.26721 7.83609 5.24631 7.84124 5.22019L8.03175 4.2431C8.05234 4.10203 8.12958 3.98185 8.24285 3.89825C8.35612 3.81465 8.50029 3.7833 8.62901 3.80942C8.82982 3.846 8.99458 3.99752 9.04607 4.19608C9.11815 4.47823 9.40649 4.64021 9.67422 4.56706C9.94711 4.4939 10.1119 4.20653 10.0398 3.9296C9.88533 3.33394 9.39619 2.88459 8.79892 2.78009C8.39217 2.70693 7.97511 2.80621 7.64044 3.05179C7.49627 3.15629 7.37785 3.28692 7.27487 3.42799L6.9299 2.45091C6.66216 1.6358 5.78171 1.18644 4.97334 1.45814C4.79828 1.51562 4.64382 1.60967 4.49965 1.7194L4.42242 1.4895C4.28855 1.08717 4.01051 0.768437 3.6398 0.580335C3.26393 0.392233 2.84688 0.366107 2.45042 0.501959C1.6472 0.778887 1.2147 1.67237 1.48244 2.49271L1.55967 2.72261C1.37946 2.72261 1.19925 2.74351 1.02419 2.80099C0.241571 3.09359 -0.190931 3.98707 0.0819571 4.80741L1.38976 8.76278C1.4155 8.84638 2.08485 10.764 3.98992 11.5686C4.13923 11.6313 4.304 11.6888 4.47391 11.7411L4.60263 11.7776C4.65412 11.7933 4.71075 11.8038 4.76739 11.8142C4.80343 11.8194 4.83948 11.8247 4.87552 11.8247C5.11236 11.8247 5.32861 11.6575 5.3801 11.4119C5.43674 11.1297 5.26168 10.8528 4.98364 10.7901L4.97849 10.7849Z" fill="#1529FF"/>
<path d="M4.17013 12.7025C3.36176 12.5091 2.94471 12.2218 2.50706 11.9135L2.3114 11.7776C2.07455 11.6157 1.75533 11.6784 1.59571 11.9187C1.4361 12.1591 1.50303 12.483 1.73473 12.645L1.92009 12.7756C2.39378 13.1048 2.93441 13.481 3.92813 13.7214C3.96932 13.7318 4.00536 13.737 4.04656 13.737C4.27825 13.737 4.48935 13.5751 4.54599 13.3347C4.61293 13.0526 4.43787 12.7704 4.16498 12.7077L4.17013 12.7025Z" fill="#1529FF"/>
<path d="M3.8303 14.7873C2.83658 14.5469 2.00247 14.1446 1.03964 13.4392C0.807942 13.2668 0.488715 13.319 0.318803 13.5542C0.148892 13.7893 0.20038 14.1132 0.432077 14.2857C1.50818 15.0799 2.45042 15.5345 3.58831 15.8062C3.6295 15.8166 3.67069 15.8218 3.70673 15.8218C3.93843 15.8218 4.14953 15.6599 4.20617 15.4195C4.2731 15.1374 4.09804 14.8552 3.82516 14.7925L3.8303 14.7873Z" fill="#1529FF"/>
<path d="M12.089 4.57751C12.9025 4.75516 13.3247 5.03209 13.7727 5.32992L13.9683 5.46054C14.0559 5.51802 14.1486 5.54414 14.2464 5.54414C14.4163 5.54414 14.5811 5.46054 14.6789 5.30379C14.8334 5.05821 14.7613 4.73948 14.5244 4.58273L14.3391 4.45733C13.8551 4.1386 13.3093 3.77285 12.3053 3.55862C12.0272 3.50114 11.7544 3.6788 11.6926 3.96095C11.6359 4.2431 11.811 4.52003 12.089 4.58273V4.57751Z" fill="#1529FF"/>
<path d="M15.7859 2.91594C14.6943 2.14785 13.7366 1.71417 12.5936 1.4686C12.3156 1.41112 12.0427 1.58877 11.9809 1.87092C11.9243 2.15308 12.0993 2.43001 12.3774 2.49271C13.3762 2.70693 14.2206 3.09359 15.1938 3.77807C15.2813 3.84077 15.3843 3.87212 15.4873 3.87212C15.652 3.87212 15.8116 3.79375 15.9095 3.64745C16.0691 3.41232 16.0124 3.08314 15.7807 2.92116L15.7859 2.91594Z" fill="#1529FF"/>
</svg>
